<?xml version="1.0" encoding="UTF-8"?>
<svg xmlns="http://www.w3.org/2000/svg" width="1200" height="630" viewBox="0 0 1200 630"><defs><linearGradient id="bg" x1="0" y1="0" x2="1" y2="1"><stop offset="0" stop-color="#0f172a"/><stop offset="1" stop-color="#1e293b"/></linearGradient><linearGradient id="rightPane" x1="0" y1="0" x2="0" y2="1"><stop offset="0" stop-color="#1e2a4a"/><stop offset="1" stop-color="#0a1226"/></linearGradient><radialGradient id="sessGlow" cx="50%" cy="100%" r="80%"><stop offset="0" stop-color="#fb923c" stop-opacity="0.85"/><stop offset="0.4" stop-color="#f97316" stop-opacity="0.5"/><stop offset="1" stop-color="#0a1226" stop-opacity="0"/></radialGradient></defs><rect width="1200" height="630" fill="url(#bg)"/><rect x="720" y="0" width="480" height="630" fill="url(#rightPane)"/><g transform="translate(960,500)"><line x1="-260" y1="0" x2="260" y2="0" stroke="#475569" stroke-width="1.5" opacity="0.6"/><circle cx="0" cy="0" r="260" fill="url(#sessGlow)"/><path d="M -110 0 A 110 110 0 0 1 110 0 Z" fill="#fb923c" opacity="0.95"/><path d="M -150 0 A 150 150 0 0 1 150 0" fill="none" stroke="#fed7aa" stroke-width="1.2" opacity="0.4"/><path d="M -190 0 A 190 190 0 0 1 190 0" fill="none" stroke="#fed7aa" stroke-width="1" opacity="0.28"/><path d="M -230 0 A 230 230 0 0 1 230 0" fill="none" stroke="#fed7aa" stroke-width="0.8" opacity="0.18"/><circle cx="0" cy="-3" r="4" fill="#ffffff" opacity="0.95"/></g><g transform="translate(60,80)"><text x="0" y="0" font-family="Inter,system-ui,sans-serif" font-size="32" font-weight="900" fill="#ffffff" letter-spacing="-1">FX<tspan fill="#fb923c">NEWS</tspan>BIAS</text><text x="0" y="22" font-family="Inter,system-ui,sans-serif" font-size="11" font-weight="500" fill="#64748b" letter-spacing="2">FOREX SENTIMENT INTELLIGENCE</text></g><g transform="translate(60,180)"><rect x="0" y="0" width="200" height="32" rx="4" fill="#fb923c" opacity="0.18"/><rect x="0" y="0" width="3" height="32" fill="#fb923c"/><text x="14" y="22" font-family="Inter,system-ui,sans-serif" font-size="13" font-weight="700" fill="#fb923c" letter-spacing="2">— ASIA SESSION</text></g><text font-family="Georgia,'Times New Roman',serif" font-size="46" font-weight="700" fill="#ffffff" letter-spacing="-1" y="290"><tspan x="60" dy="0">US Dollar Strengthens</tspan><tspan x="60" dy="56">as Bullish News Flow</tspan><tspan x="60" dy="56">Builds — Sat, 16 Ma...</tspan></text><g transform="translate(60,500)"><text x="0" y="0" font-family="Inter,system-ui,sans-serif" font-size="13" fill="#94a3b8" letter-spacing="1">SAT, 16 MAY 2026</text><line x1="0" y1="20" x2="600" y2="20" stroke="#334155" stroke-width="1"/><text x="0" y="60" font-family="Inter,system-ui,sans-serif" font-size="11" fill="#64748b" letter-spacing="2">BIGGEST MOVER</text><text x="0" y="92" font-family="Inter,system-ui,sans-serif" font-size="28" font-weight="800" fill="#ffffff">USD</text><text x="80" y="92" font-family="Inter,system-ui,sans-serif" font-size="28" font-weight="800" fill="#22c55e">▲ 78/100</text><text x="280" y="92" font-family="Inter,system-ui,sans-serif" font-size="14" font-weight="700" fill="#22c55e" letter-spacing="3">BULLISH</text></g><text x="1140" y="595" text-anchor="end" font-family="Inter,system-ui,sans-serif" font-size="13" font-weight="600" fill="#64748b" letter-spacing="1">fxnewsbias.com</text></svg>